<svg id="Layer_1" data-name="Layer 1" xmlns="http://www.w3.org/2000/svg" xmlns:xlink="http://www.w3.org/1999/xlink" viewBox="0 0 2000 2000"><defs><style>.cls-1{fill:#fff;}.cls-2{fill:url(#New_Gradient_Swatch_2);}</style><linearGradient id="New_Gradient_Swatch_2" x1="41.72" y1="1059.77" x2="1862.86" y2="1059.77" gradientUnits="userSpaceOnUse"><stop offset="0" stop-color="#ad00e9"/><stop offset="1" stop-color="#3b2ac1"/></linearGradient></defs><path class="cls-1" d="M279.39,1835.82c52.66-27.94,105.63-55.17,158.72-82.11s106.33-53.55,159.66-79.94,106.78-52.5,160.28-78.49c26.78-12.93,53.53-25.93,80.35-38.77l40.21-19.3,40.25-19.2q161-76.74,322.93-151.52t324.44-148l16.47,109.89q-84.51-7.94-169-16.23t-168.89-17q-168.85-17.35-337.56-36T570,1220.48q-168.55-20.07-336.95-41.61L56.12,1156.2,212,1073.61q149.07-79,299-156.49t300.69-153.4q150.83-75.84,302.77-149.62,76-36.87,152.39-73c51-24.05,102-47.9,153.46-71.07-47,31.23-94.34,61.79-141.81,92.15s-95.11,60.38-142.87,90.21Q992.32,741.89,847.83,829.2T558,1002.24Q412.64,1088,266.46,1172.18l-21.09-105.26q169,15.51,337.94,32.58T920.92,1135q168.74,18.4,337.32,38.18,84.3,9.9,168.55,20.13t168.47,20.86l216.71,27.3L1611.73,1324q-164.82,68-330.36,134.29T949.5,1589.08l-41.59,16.09-41.65,16c-27.74,10.69-55.56,21.2-83.35,31.8q-83.43,31.59-167.11,62.65t-167.74,61.19C392,1796.9,335.86,1816.72,279.39,1835.82Z"/><path class="cls-2" d="M1767.4,592.58q4,42.48,7.53,85t6.77,85q6.49,85,12.11,169.92,11.26,169.92,20.07,339.85,4.48,85,8.39,169.92l3.83,85,1.83,42.48.44,10.62c.1,1.6.1,4,.13,6.1l.06,6.49,0,6.49-.26,6.49-.28,6.5c-.1,2.17-.17,4.34-.4,6.5l-1.22,13c-.17,2.17-.57,4.31-.85,6.47l-.95,6.47c-.33,2.15-.61,4.32-1,6.46l-1.26,6.42-1.29,6.43c-.22,1.07-.42,2.14-.66,3.21l-.78,3.18-3.21,12.72-3.81,12.56-1,3.14c-.33,1.05-.72,2.07-1.08,3.1l-2.22,6.19-2.25,6.18c-.77,2.05-1.65,4.06-2.48,6.09l-2.54,6.07c-.85,2-1.67,4.06-2.64,6l-5.66,11.9c-2,3.92-4.1,7.76-6.17,11.64s-4.34,7.64-6.59,11.41a335.17,335.17,0,0,1-30.6,43c-1.42,1.69-2.76,3.45-4.26,5.07l-4.42,4.92-4.45,4.92-1.11,1.22-1.16,1.18-2.33,2.36-4.67,4.71-2.34,2.35c-.77.79-1.57,1.56-2.39,2.3l-9.79,9a364.39,364.39,0,0,1-42.5,32.1l-11.4,7c-1.89,1.19-3.87,2.23-5.82,3.31l-5.88,3.23c-2,1-3.91,2.17-5.91,3.16l-6,3c-4,1.94-8,4-12.18,5.68s-8.24,3.54-12.4,5.23l-12.64,4.67-3.17,1.15-3.22,1-6.44,2-6.45,2c-2.17.6-4.35,1.16-6.53,1.73l-6.55,1.69c-2.18.56-4.36,1.14-6.57,1.56l-13.27,2.71c-1.1.24-2.21.43-3.33.59l-3.34.52-6.69,1c-2.24.32-4.47.71-6.71,1l-6.73.69-6.74.67-3.38.33-3.38.18-13.52.66-21.5.64-85,2.38q-85,2.29-169.92,4.21-169.92,3.81-339.85,6.32t-339.84,3.7l-85,.54-21.24.12-10.62,0-5.31,0-7-.12a357.43,357.43,0,0,1-56.76-5.21l-7-1.24c-2.35-.43-4.69-.83-7-1.39q-7-1.56-13.93-3.21c-4.62-1.16-9.19-2.52-13.78-3.81-2.28-.68-4.6-1.26-6.85-2l-6.77-2.27c-9.08-2.92-17.9-6.53-26.72-10.1l-13-5.87c-2.18-1-4.3-2-6.42-3.12l-6.35-3.24c-2.11-1.09-4.23-2.16-6.32-3.29l-6.19-3.53-6.17-3.56c-1-.6-2.06-1.19-3.08-1.81l-3-1.9c-4-2.56-8-5.12-12-7.72l-11.6-8.24a368.83,368.83,0,0,1-80.13-80.11l-8.24-11.6c-2.6-4-5.16-8-7.72-12l-1.91-3c-.62-1-1.2-2-1.8-3.07l-3.57-6.17-3.53-6.19c-1.13-2.09-2.2-4.21-3.3-6.32l-3.25-6.35c-1.08-2.11-2.16-4.23-3.12-6.41l-5.87-13c-3.57-8.83-7.18-17.65-10.09-26.72l-2.27-6.78c-.79-2.25-1.37-4.57-2.05-6.85-1.29-4.59-2.65-9.16-3.81-13.78l-3.22-13.93c-.56-2.31-1-4.66-1.39-7l-1.26-7a358.71,358.71,0,0,1-5.21-56.76l-.12-7,0-5.31,0-10.62.1-21.24.51-85Q43.58,1289.52,46,1119.6T52.3,779.75q1.89-85,4.19-169.92l2.37-85,.64-21.5.66-13.54.18-3.38.32-3.37.67-6.75.7-6.74c.25-2.24.64-4.47,1-6.71l1-6.7.52-3.34c.17-1.12.35-2.23.59-3.34l2.71-13.27c.43-2.21,1-4.4,1.56-6.58l1.69-6.56A347.35,347.35,0,0,1,114.26,325a364.91,364.91,0,0,1,32.11-42.54l9-9.8c.74-.82,1.51-1.61,2.31-2.39l2.35-2.34,4.71-4.67,2.36-2.33,1.19-1.16,1.22-1.12,4.92-4.45c3.29-3,6.54-5.93,10-8.68a333,333,0,0,1,43.05-30.62c3.78-2.26,7.51-4.58,11.42-6.61s7.73-4.2,11.65-6.17l11.9-5.67c2-1,4-1.78,6-2.64l6.07-2.54c2-.83,4-1.7,6.1-2.48l6.18-2.25,6.19-2.22c1-.36,2.06-.75,3.1-1.08l3.15-1c4.19-1.29,8.37-2.57,12.57-3.81l12.73-3.21,3.18-.78c1.07-.25,2.15-.45,3.22-.67l6.43-1.28,6.42-1.26c2.15-.4,4.32-.67,6.47-1l6.47-.95c2.16-.29,4.31-.68,6.48-.85l13-1.23c2.16-.23,4.33-.3,6.5-.4l6.51-.28,6.5-.26,6.5,0,6.49.06c2.1,0,4.5,0,6.1.12l10.62.45,42.48,1.83,85,3.84q85,4,169.92,8.41,169.93,8.93,339.85,20.15,85,5.73,169.92,12.17,42.48,3.3,85,6.82t85,7.57q-42.48,4.06-85,7.58t-85,6.81q-85,6.54-169.92,12.17Q892.75,265.58,722.82,274.4q-85,4.5-169.92,8.42l-85,3.83-42.48,1.84-10.62.44c-1.95.06-3.08.2-4.52.31l-4.12.33-4.12.31-4.09.55-4.08.53c-1.36.18-2.73.31-4.07.61q-4,.76-8.07,1.47c-1.35.19-2.66.6-4,.89l-4,.93c-1.32.32-2.66.58-4,.94L365.91,297,362,298.07c-.65.19-1.31.35-1.95.56l-1.93.67-7.69,2.63-7.54,3-1.88.73c-.63.25-1.23.56-1.85.84l-3.69,1.69-3.68,1.66c-1.22.57-2.4,1.24-3.61,1.85l-3.59,1.85c-1.19.62-2.41,1.19-3.56,1.91l-7,4c-2.29,1.4-4.52,2.93-6.79,4.35s-4.44,3-6.63,4.57A200.09,200.09,0,0,0,276,349c-2,1.78-3.79,3.77-5.63,5.69l-2.76,2.88-.7.72-.65.76-1.3,1.52-2.62,3-1.31,1.5c-.45.49-.87,1-1.27,1.53l-4.92,6.26a230.84,230.84,0,0,0-17.18,26.56,204,204,0,0,0-21,58.45l-.72,3.79c-.24,1.26-.52,2.52-.65,3.8-.33,2.55-.68,5.1-1,7.63a17.88,17.88,0,0,0-.21,1.92l-.15,1.92-.33,3.84c-.09,1.27-.27,2.54-.31,3.83l-.12,3.85-.14,3.84-.08,1.92,0,1.93q.09,3.85.11,7.69l.59,21,2.38,85q2.26,85,4.18,169.92,3.84,169.92,6.27,339.85t3.63,339.84l.52,85,.09,21.24.05,10.62,0,5.31.13,3.64a172,172,0,0,0,2.8,27.72l.63,3.42c.2,1.14.37,2.28.68,3.4q.84,3.38,1.59,6.76c.58,2.24,1.31,4.44,1.92,6.67.34,1.11.57,2.25,1,3.33l1.15,3.28c1.37,4.42,3.27,8.67,4.95,13q1.5,3.15,2.92,6.33a34.74,34.74,0,0,0,1.54,3.12l1.61,3.1c.53,1,1,2.08,1.59,3.11l1.77,3,1.74,3c.29.5.56,1,.87,1.52l1,1.46,3.78,5.89q2.07,2.82,4.09,5.69a206.63,206.63,0,0,0,18.26,21.3,202.15,202.15,0,0,0,21.29,18.27q2.86,2,5.69,4.09l5.89,3.78,1.47,1c.49.3,1,.57,1.51.87l3,1.74,3,1.78c1,.55,2.07,1.05,3.1,1.59l3.1,1.61a33.52,33.52,0,0,0,3.12,1.55q3.18,1.43,6.33,2.92c4.32,1.68,8.57,3.58,13,5l3.28,1.15c1.08.42,2.22.65,3.33,1,2.23.61,4.43,1.34,6.67,1.92s4.51,1,6.76,1.6c1.12.31,2.26.49,3.4.69l3.42.63a169.91,169.91,0,0,0,27.73,2.8l3.64.14,5.31,0,10.62,0,21.24.12,85,.54q169.92,1.23,339.84,3.7t339.85,6.33q85,1.92,169.92,4.21l85,2.37,21,.6,7.7.12,1.94,0,1.92-.08,3.84-.14,3.86-.12c1.29,0,2.56-.22,3.84-.31l3.84-.33,1.92-.16a17.88,17.88,0,0,0,1.92-.21q3.81-.54,7.64-1c1.29-.13,2.54-.4,3.81-.64l3.79-.72a204.47,204.47,0,0,0,58.53-21,233.63,233.63,0,0,0,26.6-17.19,217.87,217.87,0,0,0,23.9-21.19,200.41,200.41,0,0,0,20.6-24.67c1.55-2.19,3.19-4.34,4.58-6.64s3-4.5,4.37-6.8l4-7c.71-1.15,1.28-2.37,1.9-3.57l1.86-3.59c.61-1.21,1.28-2.39,1.85-3.61l1.66-3.69,1.69-3.69c.28-.62.59-1.23.84-1.86l.74-1.88,3-7.55,2.63-7.7.67-1.93c.21-.64.37-1.3.56-1.95l1.12-3.93,1.15-3.92c.37-1.31.62-2.65.94-4l.94-4c.28-1.33.69-2.65.89-4l1.47-8.08c.3-1.34.43-2.71.6-4.07l.53-4.09.56-4.09.31-4.13.32-4.13c.11-1.43.26-2.57.31-4.52l.45-10.62,1.82-42.48,3.84-85q3.95-85,8.39-169.92,8.88-169.93,20.06-339.85,5.7-85,12.11-169.92,3.27-42.48,6.78-85T1767.4,592.58Z"/><circle class="cls-1" cx="1782.95" cy="241.12" r="192.14"/></svg>